<?xml version="1.0" standalone="no"?>
<!DOCTYPE svg PUBLIC "-//W3C//DTD SVG 20010904//EN"
 "http://www.w3.org/TR/2001/REC-SVG-20010904/DTD/svg10.dtd">
<svg version="1.0" xmlns="http://www.w3.org/2000/svg"
 width="900.000000pt" height="828.000000pt" viewBox="0 0 900.000000 828.000000"
 preserveAspectRatio="xMidYMid meet">
<metadata>
Created by potrace 1.10, written by Peter Selinger 2001-2011
</metadata>
<g transform="translate(0.000000,828.000000) scale(0.100000,-0.100000)"
fill="#197b84" stroke="none">
<path d="M1113 8058 l2 -223 213 -3 212 -2 0 202 c0 112 -3 213 -6 226 -6 22
-7 22 -215 22 l-208 0 2 -222z"/>
<path d="M2244 7797 c-2 -7 -3 -100 -2 -207 l3 -195 200 0 200 0 3 208 2 207
-200 0 c-154 0 -202 -3 -206 -13z"/>
<path d="M1460 7071 c0 -172 2 -200 17 -212 12 -11 61 -14 212 -14 l196 0 3
190 c1 105 0 200 -3 213 -5 22 -6 22 -215 22 l-210 0 0 -199z"/>
<path d="M2790 6891 c0 -188 -1 -201 -19 -211 -13 -6 -182 -10 -480 -10 l-461
0 0 -30 c0 -17 6 -41 14 -53 8 -12 42 -86 75 -163 34 -78 68 -155 76 -170 8
-16 15 -35 15 -42 0 -12 26 -70 37 -82 15 -16 23 43 23 167 0 185 -16 173 232
173 102 0 198 -4 212 -10 l26 -10 0 -218 c0 -156 -3 -221 -12 -230 -9 -9 -69
-12 -208 -12 -108 0 -200 -3 -203 -7 -4 -3 -3 -11 2 -17 5 -6 14 -29 21 -51 7
-22 16 -44 20 -50 4 -5 27 -55 50 -110 23 -55 49 -109 56 -120 8 -11 14 -27
14 -36 0 -10 7 -30 15 -46 24 -46 82 -176 90 -202 4 -13 31 -74 61 -135 l53
-111 1 187 c0 156 3 189 16 202 13 14 47 16 219 16 172 0 206 -2 219 -16 14
-13 16 -47 16 -220 0 -123 -4 -213 -10 -225 -10 -18 -23 -19 -215 -19 -112 0
-206 -4 -209 -9 -3 -4 3 -26 13 -47 10 -22 44 -97 75 -169 32 -71 67 -152 80
-180 22 -49 82 -187 136 -315 15 -36 44 -100 64 -143 20 -42 36 -80 36 -84 0
-4 9 -25 19 -47 65 -139 89 -194 96 -216 4 -14 28 -67 51 -118 24 -50 44 -95
44 -100 0 -4 9 -25 19 -47 35 -72 79 -169 104 -230 14 -33 32 -73 41 -90 9
-16 16 -35 16 -42 0 -6 7 -24 15 -40 16 -31 31 -65 129 -293 37 -85 80 -182
96 -215 16 -33 36 -80 45 -105 10 -25 23 -57 31 -72 8 -14 14 -33 14 -41 0 -8
7 -20 15 -27 8 -7 22 -35 30 -62 14 -47 73 -180 115 -260 11 -20 20 -45 20
-55 0 -10 6 -27 13 -38 7 -11 30 -60 51 -110 57 -132 144 -331 177 -402 16
-35 29 -66 29 -70 0 -4 11 -30 24 -58 14 -27 37 -79 52 -115 14 -36 39 -92 54
-125 16 -33 35 -76 43 -95 16 -40 80 -185 108 -246 11 -23 19 -44 19 -48 0 -4
13 -33 29 -66 16 -32 32 -69 36 -82 4 -12 30 -70 56 -126 27 -57 49 -106 49
-108 0 -5 23 -60 56 -131 8 -18 21 -48 30 -68 8 -19 21 -49 29 -67 7 -18 16
-41 19 -50 4 -13 16 -18 40 -18 30 0 36 4 50 40 8 21 24 58 35 82 11 24 26 61
34 83 14 39 49 118 147 335 27 58 51 116 54 130 4 14 22 57 41 95 18 39 41 88
50 110 9 22 23 54 30 70 42 92 65 144 65 150 0 3 14 33 30 67 17 33 30 64 30
70 0 5 15 42 34 81 71 152 96 207 96 216 0 4 18 48 41 97 22 49 47 105 55 124
27 62 41 94 63 141 12 25 21 49 21 52 0 3 18 43 39 89 22 46 54 119 71 163 17
44 35 85 40 90 4 6 26 53 48 105 55 132 118 277 172 393 17 38 35 79 40 92 8
22 130 303 165 380 7 17 29 66 48 110 19 44 60 136 91 205 31 69 56 132 56
141 0 9 7 22 15 29 8 7 15 18 15 25 0 7 13 40 29 72 16 33 33 72 37 88 4 16
22 59 39 95 18 36 49 106 70 155 21 50 52 122 70 160 18 39 40 88 49 110 9 22
21 47 25 56 5 8 22 49 39 90 16 41 51 118 76 172 25 53 46 102 46 108 0 6 6
23 13 37 26 51 98 214 147 332 18 41 42 98 55 125 12 28 35 79 50 115 51 120
76 175 90 202 8 14 15 31 15 36 0 5 25 62 55 126 30 63 55 120 55 126 0 9 52
123 86 192 8 14 14 30 14 36 0 5 25 62 55 126 30 64 55 120 55 126 0 6 21 51
46 101 25 50 43 97 40 105 -5 12 -123 14 -767 12 l-762 -3 -32 -90 c-32 -88
-52 -139 -81 -202 -8 -17 -14 -36 -14 -42 0 -6 -6 -25 -14 -43 -12 -30 -41
-106 -97 -258 -18 -47 -44 -115 -105 -270 -7 -19 -25 -66 -40 -105 -14 -38
-37 -99 -51 -135 -13 -36 -36 -94 -49 -130 -14 -36 -36 -94 -48 -130 -13 -36
-31 -78 -40 -95 -9 -16 -16 -38 -16 -48 0 -9 -4 -25 -10 -35 -18 -31 -100
-242 -100 -256 0 -8 -7 -28 -15 -45 -8 -17 -22 -45 -30 -62 -8 -17 -15 -37
-15 -45 0 -8 -9 -32 -20 -54 -11 -22 -20 -47 -20 -56 0 -9 -13 -46 -30 -81
-16 -34 -30 -67 -30 -72 0 -12 -77 -210 -95 -244 -8 -16 -15 -38 -15 -49 0
-11 -6 -32 -14 -46 -23 -46 -46 -102 -46 -115 0 -7 -9 -29 -20 -50 -11 -20
-20 -42 -20 -49 0 -13 -66 -183 -126 -326 -8 -18 -14 -41 -14 -50 0 -10 -7
-27 -15 -38 -8 -10 -15 -28 -15 -39 0 -11 -6 -29 -14 -40 -7 -11 -18 -36 -24
-55 -39 -130 -69 -172 -96 -135 -8 11 -25 47 -36 80 -12 33 -28 69 -35 81 -7
11 -18 36 -23 55 -10 33 -82 213 -102 254 -5 11 -21 50 -35 87 -13 37 -33 87
-44 110 -11 24 -33 77 -49 118 -65 165 -94 236 -108 262 -8 14 -14 35 -14 46
0 11 -6 25 -14 31 -8 7 -18 26 -21 42 -4 17 -13 42 -21 57 -8 15 -14 32 -14
38 0 7 -13 38 -29 70 -15 33 -38 86 -51 119 -13 33 -38 96 -57 140 -18 45 -33
84 -33 89 0 8 -18 52 -45 111 -8 17 -25 60 -39 96 -13 36 -35 90 -49 120 -13
30 -35 83 -48 119 -12 36 -31 79 -41 95 -10 17 -18 36 -18 44 0 14 -29 82 -52
126 -6 11 -15 33 -19 50 -4 16 -31 86 -59 155 -29 69 -68 165 -86 214 -19 49
-38 94 -43 100 -4 6 -11 24 -15 40 -4 17 -21 56 -37 89 -16 32 -29 65 -29 72
0 11 -13 44 -65 160 -7 17 -17 41 -21 55 -3 14 -17 46 -29 72 -12 25 -25 58
-29 72 -6 24 -11 26 -56 26 l-49 0 -3 -142 -3 -143 -220 -3 c-198 -2 -221 -1
-232 15 -20 27 -18 247 3 267 13 13 45 16 200 16 182 0 184 0 189 23 3 12 4
103 3 202 l-3 180 -207 3 -208 2 0 -199z m568 -1068 c2 -215 2 -222 -18 -233
-14 -7 -89 -10 -221 -8 -185 3 -202 5 -215 22 -11 16 -14 62 -14 210 0 105 3
201 6 214 l6 22 227 -2 226 -3 3 -222z"/>
</g>
</svg>
